<svg version="1.1" preserveAspectRatio="none" xmlns="http://www.w3.org/2000/svg" width="500" height="500" viewBox="0 0 500 500"><rect width="100%" height="100%" fill="#F5F1EE" fill-opacity="1"/><svg viewBox="47.8526 27.7234 324.0536 266" width="417" height="342.29522523434395" x="41.5px" y="78.8524px" xmlns="http://www.w3.org/2000/svg" xmlns:xlink="http://www.w3.org/1999/xlink" preserveAspectRatio="none"><defs></defs><style>.companyName {fill:#9D5D35;fill-opacity:1;}.icon1 {fill:#D6C4B0;fill-opacity:1;}.icon2 {fill:#5D949E;fill-opacity:1;}.icon3 {fill:#958868;fill-opacity:1;}.icon3-str {stroke:#958868;stroke-opacity:1;}</style><g opacity="1" transform="rotate(0 136.8 27.7234)">
<svg width="146.1588" height="200" x="136.8" y="27.7234" version="1.1" preserveAspectRatio="none" viewBox="41.5 20 117 160.10000610351562">
  <g transform="matrix(1 0 0 1 0 0)" ><g><path d="M80.5 107.3H66.2l7.2-33.7c-.1 0 7.1 33.7 7.1 33.7zm46.2-33.7l-7.2 33.7h14.4l-7.2-33.7zM100 62l-11.5 54.2h23.1L100 62zm-14.5 86.5h41.2v-3.4H85.5v3.4zm73-70.2v43.5c0 32.1-26.2 58.3-58.5 58.3S41.5 154 41.5 121.8V78.3C41.5 46.1 67.7 20 100 20s58.5 26.1 58.5 58.3zm-3.4 0c0-30.3-24.7-54.9-55.1-54.9S44.9 48 44.9 78.3v43.5c0 30.3 24.7 54.9 55.1 54.9s55.1-24.6 55.1-54.9V78.3zM64.2 54.6c0-4.9 4-8.9 8.9-8.9s8.9 4 8.9 8.9-4 8.9-8.9 8.9c-4.9-.1-8.9-4-8.9-8.9zm3.4 0c0 3 2.5 5.5 5.5 5.5s5.5-2.5 5.5-5.5-2.5-5.5-5.5-5.5-5.5 2.4-5.5 5.5zm59.1 8.5c1.5 0 1.5-2.3 0-2.3s-1.5 2.3 0 2.3zm-18.5-2.9c1.5 0 1.5-2.3 0-2.3-1.5.1-1.5 2.3 0 2.3zm4.9-14.8c1.5 0 1.5-2.3 0-2.3s-1.5 2.3 0 2.3zm13-6.4h.3c1.5 0 1.5-2.3 0-2.3h-.3c-1.5.1-1.5 2.3 0 2.3zM91.7 51.5c1.5 0 1.5-2.3 0-2.3-1.4 0-1.4 2.3 0 2.3zM79.2 39.3c1.5 0 1.5-2.3 0-2.3-1.4.1-1.4 2.3 0 2.3zM54.3 78.6c1.5 0 1.5-2.3 0-2.3-1.5.1-1.5 2.3 0 2.3zm42-39.6c1.5 0 1.5-2.3 0-2.3-1.5.1-1.5 2.3 0 2.3zm27.2 10.2c1.5 0 1.5-2.3 0-2.3-1.5.1-1.5 2.3 0 2.3zm21 25.5c1.5 0 1.5-2.3 0-2.3s-1.5 2.3 0 2.3zm.9 61.5h-24.2v3.4h22.9c-2.3 5.3-5.5 10.2-9.6 14.4H94.4v3.4h36.5c-8.3 7-19 11.1-30.5 11.2-11.6-.1-22.4-4.3-30.8-11.5h10.7v-3.4H66c-3.9-4.1-7.1-8.9-9.3-14.1h52v-3.4H55.4c0-.1-.1-.1-.1-.2-1.6-4.9-2.5-9.9-2.5-15.1h-3.4c0 5.5.9 10.9 2.6 16.1 7 20.7 26.1 34.6 47.9 35h.8c21.8-.3 41-14.3 47.9-35 1.7-5.2 2.6-10.6 2.6-16.1h-3.4c0 5.1-.8 10.2-2.4 15 .1.1 0 .2 0 .3zM75 129v-16.4h-3.4V129H75zm26.1 0v-7.3h-3.4v7.3h3.4zm27.3 0v-16.4H125V129h3.4z" data-color="1" class="icon1"></path></g></g>
</svg>
</g><g opacity="1" transform="rotate(0 47.8526 253.7234)">
<svg width="324.0536" height="40" x="47.8526" y="253.7234" version="1.1" preserveAspectRatio="none" viewBox="0.918 -26.8359 282.9101 34.921800000000005">
  <g transform="matrix(1 0 0 1 0 0)" class="companyName"><path id="id-D6z1nYkh12" d="M0.92-24.65L0.92-26.84L7.75-26.84L7.75-15.88Q8.67-16.60 9.68-17.20Q10.68-17.79 11.83-18.22Q12.97-18.65 14.27-18.89Q15.57-19.12 17.07-19.12L17.07-19.12Q19.12-19.12 21.04-18.53Q22.95-17.93 24.43-16.70Q25.92-15.47 26.82-13.59Q27.71-11.72 27.71-9.16L27.71-9.16Q27.71-6.70 26.83-4.87Q25.94-3.05 24.39-1.85Q22.85-0.64 20.78-0.06Q18.71 0.53 16.37 0.53L16.37 0.53Q15.18 0.53 14.01 0.34Q12.85 0.16 11.75-0.17Q10.64-0.49 9.64-0.93Q8.63-1.37 7.75-1.88L7.75-1.88L7.75 0L0.92 0L0.92-2.21L5.31-2.21L5.31-24.65L0.92-24.65ZM7.75-13.28L7.75-4.32Q8.52-3.77 9.42-3.27Q10.33-2.77 11.41-2.39Q12.48-2.01 13.71-1.79Q14.94-1.56 16.33-1.56L16.33-1.56Q18.34-1.56 19.99-2.07Q21.64-2.58 22.82-3.54Q24.00-4.51 24.66-5.93Q25.31-7.34 25.31-9.16L25.31-9.16Q25.31-11.05 24.75-12.52Q24.18-13.98 23.08-14.99Q21.97-16.00 20.33-16.51Q18.69-17.03 16.52-17.03L16.52-17.03Q15.06-17.03 13.78-16.69Q12.50-16.35 11.41-15.80Q10.31-15.25 9.39-14.59Q8.48-13.93 7.75-13.28L7.75-13.28Z M30.57-16.41L30.57-18.59L37.40-18.59L37.40-2.21L41.82-2.21L41.82 0L30.57 0L30.57-2.21L34.96-2.21L34.96-16.41L30.57-16.41ZM33.73-23.81L33.73-23.81Q33.73-24.26 33.90-24.66Q34.06-25.06 34.36-25.35Q34.65-25.64 35.04-25.82Q35.43-26.00 35.88-26.00L35.88-26.00Q36.33-26.00 36.73-25.82Q37.13-25.64 37.43-25.35Q37.73-25.06 37.91-24.66Q38.09-24.26 38.09-23.81L38.09-23.81Q38.09-23.36 37.91-22.96Q37.73-22.56 37.43-22.27Q37.13-21.97 36.73-21.81Q36.33-21.64 35.88-21.64L35.88-21.64Q35.43-21.64 35.04-21.81Q34.65-21.97 34.36-22.27Q34.06-22.56 33.90-22.96Q33.73-23.36 33.73-23.81Z M54.96 8.09L54.96 8.09Q52.17 8.09 49.81 7.54Q47.46 6.99 45.68 6.11L45.68 6.11L46.80 3.96Q47.15 4.18 47.77 4.50Q48.40 4.82 49.38 5.15Q50.35 5.47 51.73 5.69Q53.11 5.92 54.96 5.92L54.96 5.92Q56.95 5.92 58.42 5.63Q59.88 5.33 60.93 4.81Q61.97 4.30 62.63 3.60Q63.28 2.91 63.66 2.11Q64.04 1.31 64.18 0.43Q64.32-0.45 64.32-1.33L64.32-1.33L64.32-2.71Q63.40-1.99 62.40-1.40Q61.41-0.80 60.26-0.37Q59.12 0.06 57.82 0.29Q56.52 0.53 55 0.53L55 0.53Q52.97 0.53 51.04-0.07Q49.12-0.66 47.64-1.89Q46.15-3.13 45.25-5Q44.36-6.88 44.36-9.43L44.36-9.43Q44.36-11.89 45.24-13.71Q46.13-15.53 47.68-16.73Q49.22-17.93 51.29-18.53Q53.36-19.12 55.72-19.12L55.72-19.12Q56.91-19.12 58.07-18.94Q59.22-18.75 60.31-18.42Q61.41-18.09 62.42-17.65Q63.44-17.21 64.32-16.72L64.32-16.72L64.32-18.59L71.15-18.59L71.15-16.41L66.76-16.41L66.76-1.41Q66.76 0.70 66.07 2.44Q65.39 4.18 63.96 5.44Q62.52 6.70 60.28 7.39Q58.05 8.09 54.96 8.09ZM55.57-1.56L55.57-1.56Q57.01-1.56 58.29-1.90Q59.57-2.25 60.67-2.79Q61.78-3.34 62.69-4.00Q63.59-4.67 64.32-5.31L64.32-5.31L64.32-14.24Q63.57-14.79 62.66-15.28Q61.74-15.78 60.65-16.17Q59.57-16.56 58.35-16.80Q57.13-17.03 55.76-17.03L55.76-17.03Q53.75-17.03 52.09-16.52Q50.43-16.02 49.25-15.05Q48.07-14.08 47.41-12.67Q46.76-11.25 46.76-9.43L46.76-9.43Q46.76-5.64 49.00-3.60Q51.25-1.56 55.57-1.56Z M87.64-24.65L87.64-26.84L94.47-26.84L94.47-15.88Q95.39-16.60 96.40-17.20Q97.40-17.79 98.54-18.22Q99.69-18.65 100.99-18.89Q102.29-19.12 103.79-19.12L103.79-19.12Q105.84-19.12 107.75-18.53Q109.67-17.93 111.15-16.70Q112.64-15.47 113.54-13.59Q114.43-11.72 114.43-9.16L114.43-9.16Q114.43-6.70 113.54-4.87Q112.66-3.05 111.11-1.85Q109.57-0.64 107.50-0.06Q105.43 0.53 103.09 0.53L103.09 0.53Q101.89 0.53 100.73 0.34Q99.57 0.16 98.47-0.17Q97.36-0.49 96.36-0.93Q95.35-1.37 94.47-1.88L94.47-1.88L94.47 0L87.64 0L87.64-2.21L92.03-2.21L92.03-24.65L87.64-24.65ZM94.47-13.28L94.47-4.32Q95.23-3.77 96.14-3.27Q97.05-2.77 98.13-2.39Q99.20-2.01 100.43-1.79Q101.66-1.56 103.05-1.56L103.05-1.56Q105.06-1.56 106.71-2.07Q108.36-2.58 109.54-3.54Q110.72-4.51 111.38-5.93Q112.03-7.34 112.03-9.16L112.03-9.16Q112.03-11.05 111.46-12.52Q110.90-13.98 109.79-14.99Q108.69-16.00 107.05-16.51Q105.41-17.03 103.24-17.03L103.24-17.03Q101.78-17.03 100.50-16.69Q99.22-16.35 98.13-15.80Q97.03-15.25 96.11-14.59Q95.20-13.93 94.47-13.28L94.47-13.28Z M145.68-2.21L145.68 0L138.85 0L138.85-3.52Q137.93-2.64 136.80-1.88Q135.66-1.13 134.37-0.57Q133.07 0 131.62 0.32Q130.18 0.64 128.65 0.64L128.65 0.64Q126.82 0.64 125.46 0.19Q124.10-0.27 123.20-1.11Q122.30-1.95 121.86-3.15Q121.41-4.36 121.41-5.84L121.41-5.84L121.41-16.41L117.01-16.41L117.01-18.59L123.85-18.59L123.85-6.56Q123.85-5.08 124.23-4.11Q124.61-3.14 125.31-2.58Q126.02-2.01 127.02-1.79Q128.03-1.56 129.30-1.56L129.30-1.56Q130.74-1.56 132.15-1.95Q133.55-2.34 134.80-2.94Q136.05-3.54 137.09-4.25Q138.13-4.96 138.85-5.61L138.85-5.61L138.85-16.41L134.45-16.41L134.45-18.59L141.29-18.59L141.29-2.21L145.68-2.21Z M150.84 0L148.65 0L148.65-6.84L150.84-6.84L150.84-5.64Q150.84-4.57 151.57-3.80Q152.30-3.03 153.46-2.53Q154.61-2.03 156.01-1.80Q157.40-1.56 158.73-1.56L158.73-1.56Q160.29-1.56 161.60-1.73Q162.91-1.89 163.87-2.29Q164.82-2.68 165.35-3.31Q165.88-3.95 165.88-4.88L165.88-4.88Q165.88-5.76 165.40-6.38Q164.92-6.99 164.11-7.40Q163.30-7.81 162.22-8.09Q161.13-8.36 159.91-8.56Q158.69-8.77 157.40-8.96Q156.11-9.14 154.89-9.40Q153.67-9.67 152.59-10.04Q151.50-10.41 150.69-10.99Q149.88-11.56 149.40-12.38Q148.93-13.20 148.93-14.36L148.93-14.36Q148.93-15.84 149.67-16.79Q150.41-17.73 151.60-18.28Q152.79-18.83 154.31-19.03Q155.82-19.24 157.36-19.24L157.36-19.24Q159.61-19.24 161.48-18.73Q163.36-18.22 164.65-17.40L164.65-17.40L164.65-18.59L166.84-18.59L166.84-12.32L164.65-12.32L164.65-13.77Q164.65-14.39 164.32-14.89Q163.98-15.39 163.42-15.77Q162.85-16.15 162.13-16.42Q161.41-16.68 160.62-16.85Q159.82-17.01 159.03-17.09Q158.24-17.17 157.56-17.17L157.56-17.17Q154.47-17.17 152.90-16.56Q151.33-15.96 151.33-14.36L151.33-14.36Q151.33-13.59 151.81-13.08Q152.29-12.56 153.10-12.20Q153.91-11.84 154.99-11.59Q156.07-11.35 157.29-11.14Q158.52-10.94 159.80-10.73Q161.09-10.53 162.31-10.22Q163.54-9.92 164.62-9.49Q165.70-9.06 166.51-8.43Q167.32-7.79 167.80-6.89Q168.28-6.00 168.28-4.77L168.28-4.77Q168.28-3.69 167.87-2.89Q167.46-2.09 166.78-1.49Q166.09-0.90 165.21-0.51Q164.32-0.12 163.34 0.11Q162.36 0.33 161.37 0.43Q160.37 0.53 159.49 0.53L159.49 0.53Q156.56 0.53 154.40-0.10Q152.25-0.72 150.84-1.72L150.84-1.72L150.84 0Z M170.88-16.41L170.88-18.59L177.71-18.59L177.71-2.21L182.13-2.21L182.13 0L170.88 0L170.88-2.21L175.27-2.21L175.27-16.41L170.88-16.41ZM174.04-23.81L174.04-23.81Q174.04-24.26 174.21-24.66Q174.38-25.06 174.67-25.35Q174.96-25.64 175.35-25.82Q175.74-26.00 176.19-26.00L176.19-26.00Q176.64-26.00 177.04-25.82Q177.44-25.64 177.74-25.35Q178.05-25.06 178.22-24.66Q178.40-24.26 178.40-23.81L178.40-23.81Q178.40-23.36 178.22-22.96Q178.05-22.56 177.74-22.27Q177.44-21.97 177.04-21.81Q176.64-21.64 176.19-21.64L176.19-21.64Q175.74-21.64 175.35-21.81Q174.96-21.97 174.67-22.27Q174.38-22.56 174.21-22.96Q174.04-23.36 174.04-23.81Z M183.67-16.41L183.67-18.59L190.51-18.59L190.51-15.08Q191.43-15.96 192.56-16.71Q193.69-17.46 195-18.03Q196.31-18.59 197.75-18.92Q199.20-19.24 200.72-19.24L200.72-19.24Q202.54-19.24 203.90-18.78Q205.25-18.32 206.15-17.48Q207.05-16.64 207.50-15.44Q207.95-14.24 207.95-12.75L207.95-12.75L207.95-2.21L212.36-2.21L212.36 0L201.11 0L201.11-2.21L205.51-2.21L205.51-12.03Q205.51-13.52 205.13-14.48Q204.75-15.45 204.04-16.02Q203.34-16.58 202.33-16.81Q201.33-17.03 200.08-17.03L200.08-17.03Q198.61-17.03 197.21-16.64Q195.80-16.25 194.56-15.66Q193.32-15.08 192.28-14.37Q191.23-13.65 190.51-13.01L190.51-13.01L190.51-2.21L194.92-2.21L194.92 0L183.67 0L183.67-2.21L188.07-2.21L188.07-16.41L183.67-16.41Z M217.42-10.23L234.59-10.23Q234.49-11.56 233.98-12.75Q233.48-13.95 232.46-14.85Q231.45-15.76 229.90-16.30Q228.36-16.84 226.19-16.84L226.19-16.84Q224.16-16.84 222.60-16.30Q221.04-15.76 219.94-14.85Q218.85-13.95 218.22-12.75Q217.60-11.56 217.42-10.23L217.42-10.23ZM226.15 0.49L226.15 0.49Q223.59 0.49 221.51-0.19Q219.43-0.86 217.97-2.12Q216.50-3.38 215.70-5.18Q214.90-6.97 214.90-9.20L214.90-9.20Q214.90-11.37 215.74-13.17Q216.58-14.98 218.09-16.28Q219.59-17.58 221.66-18.29Q223.73-19.00 226.19-19.00L226.19-19.00Q228.75-19.00 230.78-18.28Q232.81-17.56 234.22-16.20Q235.63-14.84 236.37-12.91Q237.11-10.98 237.11-8.55L237.11-8.55L237.11-8.13L217.42-8.13Q217.56-6.64 218.19-5.45Q218.83-4.26 219.94-3.42Q221.05-2.58 222.61-2.13Q224.16-1.68 226.15-1.68L226.15-1.68Q228.07-1.68 229.48-1.99Q230.90-2.30 231.88-2.83Q232.87-3.36 233.49-4.02Q234.10-4.69 234.43-5.39L234.43-5.39L236.88-5.39Q235.72-2.42 232.96-0.97Q230.20 0.49 226.15 0.49Z M243.30 0L241.11 0L241.11-6.84L243.30-6.84L243.30-5.64Q243.30-4.57 244.03-3.80Q244.77-3.03 245.92-2.53Q247.07-2.03 248.47-1.80Q249.86-1.56 251.19-1.56L251.19-1.56Q252.75-1.56 254.06-1.73Q255.37-1.89 256.33-2.29Q257.29-2.68 257.81-3.31Q258.34-3.95 258.34-4.88L258.34-4.88Q258.34-5.76 257.86-6.38Q257.38-6.99 256.57-7.40Q255.76-7.81 254.68-8.09Q253.59-8.36 252.37-8.56Q251.15-8.77 249.86-8.96Q248.57-9.14 247.35-9.40Q246.13-9.67 245.05-10.04Q243.96-10.41 243.15-10.99Q242.34-11.56 241.87-12.38Q241.39-13.20 241.39-14.36L241.39-14.36Q241.39-15.84 242.13-16.79Q242.87-17.73 244.06-18.28Q245.25-18.83 246.77-19.03Q248.28-19.24 249.82-19.24L249.82-19.24Q252.07-19.24 253.95-18.73Q255.82-18.22 257.11-17.40L257.11-17.40L257.11-18.59L259.30-18.59L259.30-12.32L257.11-12.32L257.11-13.77Q257.11-14.39 256.78-14.89Q256.45-15.39 255.88-15.77Q255.31-16.15 254.59-16.42Q253.87-16.68 253.08-16.85Q252.29-17.01 251.49-17.09Q250.70-17.17 250.02-17.17L250.02-17.17Q246.93-17.17 245.36-16.56Q243.79-15.96 243.79-14.36L243.79-14.36Q243.79-13.59 244.27-13.08Q244.75-12.56 245.56-12.20Q246.37-11.84 247.45-11.59Q248.54-11.35 249.76-11.14Q250.98-10.94 252.27-10.73Q253.55-10.53 254.78-10.22Q256.00-9.92 257.08-9.49Q258.16-9.06 258.97-8.43Q259.79-7.79 260.26-6.89Q260.74-6.00 260.74-4.77L260.74-4.77Q260.74-3.69 260.33-2.89Q259.92-2.09 259.24-1.49Q258.55-0.90 257.67-0.51Q256.78-0.12 255.80 0.11Q254.82 0.33 253.83 0.43Q252.83 0.53 251.95 0.53L251.95 0.53Q249.02 0.53 246.87-0.10Q244.71-0.72 243.30-1.72L243.30-1.72L243.30 0Z M266.39 0L264.20 0L264.20-6.84L266.39-6.84L266.39-5.64Q266.39-4.57 267.12-3.80Q267.85-3.03 269.00-2.53Q270.16-2.03 271.55-1.80Q272.95-1.56 274.28-1.56L274.28-1.56Q275.84-1.56 277.15-1.73Q278.46-1.89 279.41-2.29Q280.37-2.68 280.90-3.31Q281.43-3.95 281.43-4.88L281.43-4.88Q281.43-5.76 280.95-6.38Q280.47-6.99 279.66-7.40Q278.85-7.81 277.76-8.09Q276.68-8.36 275.46-8.56Q274.24-8.77 272.95-8.96Q271.66-9.14 270.44-9.40Q269.22-9.67 268.13-10.04Q267.05-10.41 266.24-10.99Q265.43-11.56 264.95-12.38Q264.47-13.20 264.47-14.36L264.47-14.36Q264.47-15.84 265.21-16.79Q265.96-17.73 267.15-18.28Q268.34-18.83 269.85-19.03Q271.37-19.24 272.91-19.24L272.91-19.24Q275.16-19.24 277.03-18.73Q278.91-18.22 280.20-17.40L280.20-17.40L280.20-18.59L282.38-18.59L282.38-12.32L280.20-12.32L280.20-13.77Q280.20-14.39 279.86-14.89Q279.53-15.39 278.96-15.77Q278.40-16.15 277.68-16.42Q276.95-16.68 276.16-16.85Q275.37-17.01 274.58-17.09Q273.79-17.17 273.11-17.17L273.11-17.17Q270.02-17.17 268.45-16.56Q266.88-15.96 266.88-14.36L266.88-14.36Q266.88-13.59 267.35-13.08Q267.83-12.56 268.64-12.20Q269.45-11.84 270.54-11.59Q271.62-11.35 272.84-11.14Q274.06-10.94 275.35-10.73Q276.64-10.53 277.86-10.22Q279.08-9.92 280.17-9.49Q281.25-9.06 282.06-8.43Q282.87-7.79 283.35-6.89Q283.83-6.00 283.83-4.77L283.83-4.77Q283.83-3.69 283.42-2.89Q283.01-2.09 282.32-1.49Q281.64-0.90 280.75-0.51Q279.86-0.12 278.89 0.11Q277.91 0.33 276.91 0.43Q275.92 0.53 275.04 0.53L275.04 0.53Q272.11 0.53 269.95-0.10Q267.79-0.72 266.39-1.72L266.39-1.72L266.39 0Z"/></g>
</svg>
</g></svg></svg>