<svg version="1.1" preserveAspectRatio="none" xmlns="http://www.w3.org/2000/svg" width="500" height="500" viewBox="0 0 500 500"><rect width="100%" height="100%" fill="#F5E7E0" fill-opacity="1"/><svg viewBox="49.8561 -15.5842 378.8245 350.9539" width="333" height="308.5007667138741" x="83.5px" y="95.7496px" xmlns="http://www.w3.org/2000/svg" xmlns:xlink="http://www.w3.org/1999/xlink" preserveAspectRatio="none"><defs></defs><style>.companyName {fill:#C66358;fill-opacity:1;}.icon1 {fill:#C66358;fill-opacity:1;}.icon2 {fill:#E3BBA7;fill-opacity:1;}.icon3 {fill:#985A55;fill-opacity:1;}.icon3-str {stroke:#985A55;stroke-opacity:1;}</style><g opacity="1" transform="rotate(0 163.5034 -15.5842)">
<svg width="151.5299" height="250.9539" x="163.5034" y="-15.5842" version="1.1" preserveAspectRatio="none" viewBox="51.71503829956055 19.700252532958984 97.09335327148438 160.7997589111328">
  <g transform="matrix(1 0 0 1 0 0)" class="icon1"><g><path d="M116.3 43.3c-3.3-1.6-6.4-2.2-9.7-2.5-3.1-.3-6.3-.5-9.4-.8-.2 0-.4.2-.6.3.2.2.3.4.5.5.9.2 1.8.3 2.7.4 2.6.2 5.3.4 7.9.5 2.9.2 5.7 1.1 8.3 2.4.8.4 1.4 1 1.9 1.9 1.2 2.3 2.3 4.7 2.9 7.3.4 1.8 1 3.6 1.4 5.4-2.3-2.3-5.1-3.6-8.1-4.7s-6.2-1-9.4-.7c-.1 0-.3 0-.4.1-.1.1-.2.3-.2.5 0 0 .2.2.3.2h1.7c4.4-.3 8.4.5 12.2 2.8 1.4.8 2.5 1.8 3.5 3 .5.5.2 1.1.3 1.6.1.4.9.7 1.1 1.1.3.9.3 1.9.4 2.7-1.9-.5-3.7-1-5.5-1.3-1.3-.2-2.7-.1-4-.1h-7.5c-.3 0-.5-.1-.8-.1-.3 0-.6.2-.8.3.3.2.5.5.8.6.5.1 1 .1 1.5.2 2.4.2 4.8.1 7.1-.1 2.5-.3 5 .2 7.4 1 1.2.4 2 1.2 2.2 2.6.3 2.4.8 4.7 1.1 7.1.1.9 0 1-.9.8-3.4-.7-6.8-.8-10.2-.3-2.2.3-4.5.5-6.7-.6-.2-.1-.5 0-.7.1.1.2.2.6.5.7 1.4.6 2.9.9 4.5.8 2.8-.2 5.7-.4 8.5-.4 1.4 0 2.8.4 4.2.6.7.1 1.2.4 1.4 1.2.6 3.2 1.7 6.4 1.6 9.7v.6c0 .6-.2.8-.8.5-1.5-.8-3.1-1.7-4.7-2.3-3.4-1.2-6.9-2-10.6-1.4-.4.1-.9.2-1.3.3-.1 0-.2.3-.3.5.2.1.3.2.5.2h.6c5.3-.9 10.2.5 14.8 3.1 1.4.7 2 1.7 1.9 3.2-.1 1.5-.1 3.1-.2 4.6 0 .5-.1 1.1-.3 1.5-.3.6-.5 1-.2 1.6 0 .1-.2.3-.2.4-.1-.1-.2-.1-.3-.2-1.5-3.2-4.6-4-7.5-4.8-2.7-.7-5.5-1.5-8-2.7-.2-.1-.4-.2-.5-.2-.1 0-.3.1-.3.1 0 .2 0 .4.1.5l1.2.6c2.5 1.3 5.2 1.8 7.9 2.6 1.5.4 2.9 1.1 4.3 1.7 1.6.8 2.5 2.1 2.5 4 0 .9.7 1.6.4 2.6-.9 2.9-.7 6-2.1 8.9-2.7-2.3-5.4-4.6-8.1-6.8-.9-.8-2-1.4-3-2-.2-.1-.5.1-.7.1.1.2.2.5.4.6 3.4 2 6 4.9 9.1 7.2 1.8 1.3 2.3 2.9 1.5 5.1-.9 2.4-1.5 4.9-2.3 7.6-2.4-4.5-5.8-7.5-10.3-9-.1 0-.3-.1-.4-.1-.3 0-.6.1-.8.2.2.2.3.4.5.6.3.2.7.3 1.1.4 3.4 1.2 6 3.5 8.1 6.3 1.2 1.6 1.1 4-.3 6-.2-1.5-1-2.4-2.1-3.2l-4.2-2.7c-1.2-.8-2.5-1.6-3.7-2.5-1.3-1-2.2-2.4-2.7-3.9-.6-2 .4-3.7 2.5-4 1-.1 2 0 3 .3 2.1.7 3.9 1.9 5.5 3.5.5.6 1.1 1.1 1.6 1.6s1 .6 1.6.2c.6-.4.9-1 .6-1.7-.3-.7-.7-1.4-1.3-1.9-2.1-1.8-4-3.6-6.4-4.9-1.7-.9-3.1-2.1-4.1-3.8-.7-1.2-1.1-2.4-.2-3.6 1-1.3 2.1-2.4 4-2.1 1.6.2 3.1.7 4.5 1.6.8.5 1.5 1.2 2.3 1.7.5.4 1.1.7 1.7.9.7.3 1.3.1 1.7-.6.4-.7.1-1.3-.5-1.7-1.6-.9-3.2-2-4.9-2.6-2.5-.9-5.1-1.3-7.7-2-1.1-.3-2.2-.6-3.3-1.1-2.3-1-2.9-3-3-5.2 0-1 .5-1.7 1.3-2.2.8-.5 1.7-.9 2.6-1.3.5-.2.7-.5.2-1-1.3-1.3-1.6-3-.8-4.4.8-1.5 2.4-2.1 4.3-2.1 2.2 0 4.3.5 6.4 1.3 1.6.6 3.1 1.3 4.7 1.9.9.4 1.4 0 1.2-1-.4-2.1-1.4-3.8-3.6-4.3-1-.2-2-.4-3-.3-2.2.2-4.3.5-6.5.7-1.3.1-2.6.1-3.8-.2-2-.5-3.2-1.8-3.6-3.9-.3-1.7.5-2.9 2.3-3.1 2.7-.4 5.4-.2 8 .8 1.4.6 3 .9 4.5.6 1.3-.2 2.2-.9 2.7-2.2.4-1.3 0-2.3-.9-3.1-1.9-1.7-4.2-2.7-6.8-1.9-3 .9-6.1 1-9.2.6-.3 0-.5 0-.8-.1-1.3-.3-2.4-.8-2.6-2.2-.2-1.4.2-2.5 1.4-3.4 1.4-1 3.1-1.1 4.8-1.1.7 0 1.4.1 2.1.2 2.5.6 4.9 0 7.3-.4 1-.2 1.2-.7.5-1.4-.8-.7-1.6-1.3-2.6-1.6-1.8-.7-3.7-.9-5.7-.2-1.6.5-3.3.6-5 .5-.3 0-.5 0-.8-.1-2-.3-3.4-1.4-3.7-2.9-.3-1.6.4-2.9 2.4-4 2.4-1.4 5.1-1.6 7.8-1.8 1.5-.1 3.1.1 4.6.1.8 0 1.7-.2 2.4-.4.6-.2.8-.8.3-1.2-.5-.5-1-1-1.7-1.3-3.7-1.5-7.4-2.7-11.4-1.5-1.8.5-3.7.5-5.5.1-2.3-.5-3.6-2.2-4.8-4-.6-1-.5-2.1.2-3.1.9-1.3 2.3-1.8 3.8-1.9 1.8-.1 3.6.4 5.3 1 1.3.5 2.6.8 3.9 1.1 1.1.3 1.9-.2 2.5-1.1.6-.9.5-1.9-.2-2.7-.6-.7-1.2-1.4-1.9-1.9-1.9-1.5-3.8-2.8-6.2-3.5-2.6-.8-3.9-3.2-3.3-5.7.3-1.2 1-2.1 2.1-2.5 4-1.4 9.3-1 12.1 4 .7 1.3 1.3 2.6 1.5 4.1.2 1.8.8 3.7 1.3 5.5.4 1.5 1.3 2.6 2.6 3.5 1.9 1.2 3.7.6 4.5-1.5l1.2-3c.6-1.3 1.6-2.2 3.1-2.3 1.3-.2 2.6-.3 3.8-.3.7 0 1.5.4 2.1.8 1.3.8 1.6 1.9 1.1 3.3-.5 1.3-1.3 2.3-2.5 3.1-2 1.2-3.7 2.8-5.1 4.7-.8 1.1-1 2.2-.8 3.5.3 2.1.9 4.2 2.3 5.9.8.9 1.4 1.1 2.4.6.4-.2.7-.7 1-1.1.1-.1.1-.2.1-.4.8-4.5 4-5.7 8.3-5 1.4.2 2.6.9 2.9 2.4.4 1.5-.1 2.9-1.2 3.9-.9.8-1.9 1.5-3 2.2-2.8 1.7-5.5 3.6-8 5.8-1.8 1.6-2.3 3.5-1.1 5.3 1.2 1.9 3.6 2.6 5.6 1.6.6-.3 1.2-.8 1.7-1.2.7-.6 1.4-1.3 2.1-2 2.4-2.4 6.3-3 9.3-1.5 1.3.7 2.4 1.6 2.4 3.2 0 1.5-1 2.7-2.8 3.3-1.2.4-2.5.5-3.8.7-1.7.3-3.5.5-5.1.9-3.5.9-6 4.1-6 7.5 0 2.3 1.3 3.5 3.6 3.2 1.8-.2 3.3-1.1 4.8-2 2.2-1.4 4.3-1.2 6.4-.1 1.1.6 1.9 1.5 2.3 2.7.8 2.6-.2 4.8-2.7 5.5-1.7.5-3.4.8-5.1.8-1.9 0-3.7.4-5.5.8-1.4.3-2.5 1-3.3 2.2-.6.8-.4 1.5.5 1.9 1 .5 2.1.7 3.2.4 1.3-.3 2.5-.6 3.8-.7 2.3-.2 4.6 0 6.7 1.2 1.8 1 2.5 2.6 2.4 4.5-.1 2-1.2 3.2-3.2 3.6-.8.1-1.5.1-2.3 0-1.7-.1-3.3-.5-5-.5-1.9 0-3.7 0-5.6.3-1 .1-2 .7-3 1.2-.3.2-.7.8-.6 1.1.1.4.6.9 1 1 1 .1 2 .1 3 0 2-.3 4-.8 6.1-1.1 2.9-.4 5.6.3 8.1 2 1.4 1 2.2 2.4 2.1 4.1-.1 2.6-1.7 4.2-4.5 4.3-2.1.1-4.1 0-6.2 0-2.1.1-4.2.2-6.3.4-.8.1-1.5.3-2.2.6-.7.4-1.5.8-2 1.4-.9.9-.9 1.8 0 2.7 1.5 1.4 3.1 2.6 5.3 2.4 1-.1 2.1 0 3.1-.2 1.7-.3 3.3-.1 5 .2.8.1 1.6.5 2.3.9 1.4.8 2 2.2 1.9 3.8-.1 1.7-1.2 2.8-2.7 3.2-1.4.3-2.9.4-4.4.3-2.1-.2-4.2-.8-6.2-1.2-.8-.2-1.5-.3-2.3-.4-.3 0-.5-.1-.8 0-1.1.1-2 .7-2 1.5-.1.9.7 1.7 1.9 1.8.8.1 1.7 0 2.5 0 1.3 0 2.6-.2 3.8 0 1.8.2 3.2 1.2 4.1 2.9 1.3 2.8-.1 5.5-3.2 5.8-1.7.1-3.5 0-5.2-.1-1-.1-1.9-.2-2.9-.4-2.5-.4-4.9.1-7.1 1.2-.7.4-1.5.9-2.3 1.1-2.7.8-4.4 2.7-5.8 5-2.2 3.5-4.7 6.8-7.6 9.8-1 1.1-2.2 2-3.3 3-.3.3-1 .5-1.1.4-.5-.5.1-.9.4-1.3.4-.6.9-1.1 1.5-1.5 3.7-3.6 6.8-7.7 9.6-12.1 1.5-2.3 1.2-4.9-.6-6.9-2-2.3-4.3-4.4-6.9-6.2-1.9-1.3-3.6-2.7-4.8-4.7-.7-1.1-1.1-2.3-1-3.7.1-1.5.8-2.4 2.2-2.8 1.5-.5 3.1-.4 4.5.4 1.2.7 2.3 1.5 3.2 2.5 2.1 2.2 4.2 4.3 5.8 6.9.6 1 1.6 1.8 2.8 1.9.9.1.9.6.6 1.2l-1.2 2.4c-.4.7-.9 1.2-1.3 1.9-.3-.7-.6-1.3-.9-2-1.9-5.1-5.5-8.8-10-11.7-.1-.1-.2-.2-.3-.2-.2 0-.4 0-.5.1-.1.1 0 .4.1.5.6.5 1.2.9 1.9 1.4 1.8 1.4 3.6 2.8 5 4.6 1.7 2.2 2.9 4.6 3.6 7.2.3 1 .4 2-.3 2.9-.3.4-.3 1-.4 1.5 0 .1.2.4.3.4.1 0 .3-.1.4-.3 1-1.7 1.9-3.5 2.9-5.2.6-1.2 1.6-1.6 3-1.6 2.7.1 5.4-.1 8.1 0 1.8.1 3.6.4 5.4.6.4.1.9.2 1.3.2.2 0 .4-.2.6-.3-.1-.2-.3-.5-.4-.5-2.2-.3-4.4-.7-6.7-.9-2.8-.1-5.5 0-8.3 0-1.4 0-1.5-.1-.9-1.5.8-1.8 1.6-3.7 2.4-5.5.4-.9 1-1.3 1.9-1.5 2.7-.7 5.4-1.4 8.2-1.2 3 .2 6.1-.1 9 .6.2 0 .4-.2.6-.3-.1-.2-.3-.5-.4-.5-1.3-.2-2.5-.5-3.8-.6-1.7-.1-3.3-.1-5-.1-2.5 0-4.9 0-7.3.8-.4.1-.9.2-1.3.3-.6.1-.9-.1-.7-.7.2-.7.5-1.5.7-2.2.7-2.5 1.5-4.9 2.2-7.4.2-.8.7-1.2 1.3-1.6 1.9-1.1 3.9-2 6.1-2.3 2.6-.4 5.2-.9 7.8-1.3 1.1-.2 2.3 0 3.5-.1.2 0 .4-.3.5-.4l-.4-.4c-.4-.1-.8-.2-1.1-.1-4.8.3-9.6.9-14.2 2.5-.1 0-.2.1-.4.1l-2.4.9c.2-.9.3-1.7.5-2.6.4-2.7 1-5.5 1.3-8.2.2-1.7.9-2.8 2.4-3.7 3.1-1.8 6.3-2.1 9.7-1.7.1 0 .3.1.4.1.8 0 1.6.7 2.3-.2-.6-.8-1.5-.7-2.2-.8-3.9-.5-7.6-.2-11 2.1-.2.1-.5.2-.8.4 0-1.2-.1-2.4 0-3.5.2-1.7.3-3.5 0-5.2-.2-1.2.3-1.9 1.3-2.5 4.3-2.2 8.7-3.9 13.5-4.4.3 0 .5-.1.7-.2.1 0 .2-.2.2-.3 0-.1-.1-.3-.2-.3-.2-.1-.5-.1-.7-.1-1.3.2-2.6.3-3.8.6-3.2.8-6.4 1.8-9.4 3.5-.3.2-.7.4-1 .5-.3.1-.6.2-.7-.3-.2-2.7-1.4-5.2-1.3-8v-.2c-1.2-1.5.1-2.3.9-3.2.5-.6 1.1-1.1 1.8-1.5 3.8-2.5 7.6-5.1 11.9-6.7 1.1-.4 2.3-.7 3.5-1 .2 0 .3-.2.4-.4-.2-.1-.4-.4-.5-.4-.5 0-1 .1-1.5.3-1.5.5-3.1.9-4.5 1.7-3.4 1.9-6.8 4-10.1 6.1-.7.4-1.2 1.1-1.9 1.7-.2.2-.5.3-.7.5l-.3-.9c-.6-4.1-1.3-8.1-1.8-12.2-.1-.5.1-1.2.3-1.6 1.4-2.6 3.1-4.9 5.8-6.3 2.3-1.2 4.5-2.6 6.7-3.9.2-.1.2-.4.3-.6-.2 0-.5-.2-.7-.1-.5.2-1.1.5-1.6.8-2.2 1.3-4.4 2.5-6.4 3.9-1.1.8-2.1 1.9-3 2.9-.5.6-.8 1.3-1.3 1.9-.2.2-.4.4-.7.6-.1-.2-.3-.4-.3-.7-.6-2-1.1-4.1-1.7-6.1-.4-1.4-.9-2.9-1.5-4.2-1.1-2.1-.9-4 .4-5.9 2.3-3.6 5-6.9 8.8-9 .2-.1.3-.4.4-.6-.3 0-.7-.2-.8-.1-1.5 1-3.1 1.9-4.4 3.2-2.3 2.3-4.3 4.8-5.7 7.7-.3.7-.6.7-1 0-1-1.7-2-3.3-2.9-5-2.2-3.9-4.8-7.6-7.9-11-1.5-1.7-3-3.4-4.5-5-.4-.4-.8-.8-1.3-1.2-.1-.1-.4 0-.5 0-.1.1-.1.4 0 .5l3 3.3c4.9 5.1 8.9 10.8 12.2 17.1-.6.3-.6.5-.3 1.1zm-.7 46.4l-1 .3c.3.2.5.5.8.7 2.2 1.2 4.2 2.5 5.9 4.3.2.2.5.5.7.6.5.3 1.2.7 1.6.1.4-.4.5-1.1.6-1.7 0-.3-.3-.7-.6-.9-2.3-2.2-4.9-3.4-8-3.4z"></path><path d="M68.2 96c.1-.6.2-1.2.4-1.9.4-2.4.9-4.8 1.3-7.2.1-.8.4-1.6-.3-2.4-.2-.3-.3-.8-.2-1.2.7-3.5 1.2-7 2.1-10.4.6-2.4 2.5-3.9 4.8-4.6 2.5-.7 4.6 1.1 4.5 3.8-.1.9-.5 1.9-.8 2.8-.7 1.6-1.7 3-3 4.3-1.6 1.5-3.1 3.1-4.7 4.6-1.2 1.1-1.9 2.3-2.1 4-.3 2.7-.8 5.4-1.1 8-.1 1.1.2 1.3 1.2.8 1.7-.9 3.3-2 5-2.9 1.8-1 3.5-2.2 5.6-2.5 1.3-.2 2.7-.3 4 0 3.9.8 5.6 5.2 3.3 8.4-.4.6-1.1 1.1-1.8 1.4-.9.4-1.8.7-2.8.8-4.2.5-8.4.5-12.4-.9-.5-.2-1-.3-1.5-.5-.9-.3-1-.2-1.1.7-.3 3.7-.2 7.5.3 11.2.2 1.3.4 1.5 1.6.9 1.1-.4 2.1-1.1 3.1-1.6 1.1-.6 2.2-1.4 3.3-1.9 2.9-1.2 5.7-.8 8.4.5 1.7.8 2 2.8.8 4.3-.6.7-1.4 1.4-2.3 1.7-1.9.8-3.9 1.5-5.8 2-2.1.5-4.2.4-6.2-.6-.5-.2-.9-.4-1.4-.6-.6-.2-.8.1-.7.7.4 2 .7 3.9 1.3 5.9.9 3.2 1.8 6.3 2.8 9.4l.3.9c.3.6.6.7 1.2.3 1.3-1 2.6-1.9 3.9-2.9.5-.4 1.1-.7 1.7-1 .5-.3.8-.3 1.4.1.7.5 1.2.4 1.4-.5.2-.9.8-1.1 1.5-1.2 1.9-.2 3.4.8 4 2.6.5 1.9.2 3.7-1.3 5.2-2.8 2.7-6.1 3.5-9.8 2.8-.2 0-.4-.1-.6-.1h-.9c0 .3 0 .6.1.9.8 1.9 1.5 3.8 2.5 5.7 1.4 2.6 3 5.1 4.5 7.7.5.9.8.8 1.2-.1 1.3-2.7 3.1-5.1 5.4-6.9 1.2-1 2.7-1.6 4.3-1.3 2.5.4 3.5 2.5 1.9 4.5-1.1 1.3-2.5 2.4-3.8 3.5-1.6 1.2-3.3 2.2-4.9 3.4-1.3.9-1.4 1.2-.6 2.3 3.3 4.7 6.8 9 11.4 12.5 3.4 2.5 6.6 5.2 9.8 7.8.4.3.7.7 1 1.3l-.9-.3c-1-.5-1.9-1-2.8-1.7-3.4-2.6-6.9-5.2-10.2-7.9-3.5-2.8-6.2-6.3-8.7-10-.8-1.1-1.4-1.4-2.8-1.2-4.4.8-8.7.5-13-.8-.9-.3-1.8-.7-2.6-1.2-1.3-.9-1.4-2.2-.2-3.2.7-.6 1.6-1.1 2.5-1.3 3.3-.8 6.5-.6 9.7.7.4.2.8.3 1.3.5.1 0 .2 0 .5-.1-.7-1.2-1.3-2.4-2-3.5-1.9-3.1-3.5-6.4-4.9-9.8-.2-.5-.4-1.1-.7-1.6-.2-.4-.4-.6-.9-.3-1 .7-2.2.7-3.4.7-2.2 0-4.5.1-6.7 0-1.8 0-3.4-.9-4.7-2-1.8-1.4-1.6-2.9.3-4.1 2.4-1.5 4.8-1.8 7.3-.6 2 .9 3.9 2 5.8 3 .3.1.6.2.9.2 0-.3.1-.6 0-.9-.5-1.7-1.2-3.3-1.6-5-1-3.6-1.8-7.2-2.7-10.9-.1-.3-.1-.6-.2-1-.1-.7-.5-1-1.2-.8-4.4 1.2-8.4-.1-12.3-1.8-2.4-1.1-2.5-3.4-.3-4.8.6-.4 1.4-.7 2.2-.8 2.3-.4 4.5 0 6.5 1.2 1.2.7 2.3 1.4 3.5 2 .7.4.9.2.9-.6 0-.7-.2-1.4-.2-2.1 0-2.9 0-5.8.1-8.7 0-1.5.1-1.5-1.3-1.7-1.6-.2-3-.7-4.4-1.4-1.4-.8-3-1.2-4.5-1.8-1.5-.7-3.1-1.3-4.4-2.3-2-1.4-2-2.6-.6-4.5 2.7-3.6 9-3 11.3 0 1 1.3 1.7 2.7 2.6 4.1.5.8 1 1.6 1.5 2.5-.2-.6-.1-.6.1-.7zm-11.9 15.4H56l.2.2h.4c-.1 0-.2-.1-.3-.2zm19 45.4c.2-.5.4-.8.4-1.1-.1-.5-.8-.7-1.2-.5-.5.2-.7.7-.3 1.1.2.3.7.3 1.1.5zm6.3-22.9c-.2-.1-.6-.3-.9-.2-.5.2-.8.7-.5 1.2.1.2.6.4.9.4.6-.2.7-.7.5-1.4zm-4.5-61.4c-.1.7-.3 1.1-.1 1.4.1.2.7.3 1 .3.5-.1.8-.6.5-1-.3-.4-.8-.4-1.4-.7zm-15.8 39.9c-.7-.1-1.1-.3-1.4-.2-.5.1-.7.6-.4 1 .2.2.7.4.9.3.3-.1.5-.5.9-1.1zm30.9 34.9c-.6-.2-1-.5-1.2-.4-.3.2-.7.6-.7.9 0 .5.5.8 1 .5.3-.1.5-.6.9-1zm-10.9-36.4c-.6-.1-1-.3-1.3-.2-.5.2-.7.7-.4 1.1.2.2.7.4.9.3.4-.3.5-.7.8-1.2zM63 134c.1-.5.3-.9.3-1.2-.1-.5-.8-.7-1.2-.4-.2.2-.4.8-.3.9.2.4.7.5 1.2.7zm-6.9-40.2c.2-.7.4-1.1.4-1.5 0-.2-.5-.3-.8-.5-.1.3-.5.6-.4.8 0 .3.3.6.8 1.2zm4.2-2.7c.2-.4.4-.8.3-.9-.2-.2-.6-.4-.9-.5-.2.3-.5.7-.4.9l1 .5zm13.2-13c-.4-.1-.9-.4-.9-.3-.2.2-.3.6-.3.9 0 .1.6.4.7.3.2-.1.2-.5.5-.9zm-1 75.4c-.4-.2-.8-.4-.9-.3-.2.2-.4.5-.5.8.3.1.6.3.9.3.1 0 .3-.5.5-.8zm18.6-3.5c-.1.5-.3.8-.2 1.1 0 .2.7.4.7.3.2-.2.4-.6.4-.9 0-.2-.5-.3-.9-.5zm-6.2-16.2c.1-.5.4-.8.3-1.1 0-.2-.6-.4-.7-.3-.2.2-.4.6-.4.9 0 .1.4.2.8.5zm-.2-36.7c.7 0 1.2 0 1.6-.1.2 0 .3-.5.4-.7-.3-.1-.7-.4-.9-.3-.3.2-.6.7-1.1 1.1zm-22.3 38.4c-.5-.1-.8-.3-1.1-.3-.2 0-.3.5-.4.7.3.1.6.4.9.4.2 0 .4-.4.6-.8zM76.8 70c-.4-.1-.9-.3-.9-.2-.2.2-.3.6-.3.9 0 .2.6.4.7.3.2-.2.2-.6.5-1zm-2.1 4c-.9-.2-1.2-.3-1.5-.2-.1 0-.3.6-.2.7.2.2.6.4.9.3.2 0 .4-.3.8-.8zm9.5 38.7c-.5-.1-.9-.4-1-.3-.2.2-.3.6-.4.9.3.1.6.4.8.3.2-.1.4-.4.6-.9zm10.4 35l-1-.2-.2 1c.3.1.6.2.8.1.2-.1.2-.5.4-.9zM55.9 91l.3-1.3c-.3 0-.7-.1-.8 0-.2.2-.4.6-.4.9 0 0 .4.2.9.4zm10.8 44.5c-.4-.1-.8-.3-1-.2-.2.1-.2.5-.3.8.3.1.6.3.9.3.2 0 .3-.5.4-.9zM81 115c-.1.4-.3.8-.2 1 .1.2.5.2.8.3.1-.3.3-.6.3-.9-.1-.1-.5-.2-.9-.4zm-8.1 41c-.4-.1-.8-.3-1-.2-.2.1-.2.5-.4.8.3.1.6.4.8.3.3-.1.4-.5.6-.9zM58.8 92.6l-.5.7c.2.1.5.3.6.2.3-.2.4-.5.6-.8l-.7-.1zm-2 21.3l.3.1v-.3c-.1-.1-.2-.1-.3-.1v.3zm3.4-2.7v-.2h-.1v.2h.1zm21.4-13.6v.2l.2-.1-.1-.1h-.1zm.7-3.7c-.1 0-.1-.1-.2-.1l-.1.1c.1 0 .1.1.2.1s.1 0 .1-.1z"></path><path d="M65.6 114.1h-.2.2c-.1 0 0 0 0 0z"></path></g></g>
</svg>
</g><g opacity="1" transform="rotate(0 49.8561 275.3697)">
<svg width="378.8245" height="60" x="49.8561" y="275.3697" version="1.1" preserveAspectRatio="none" viewBox="0.4 -27.24 227.79999999999998 36.08">
  <g transform="matrix(1 0 0 1 0 0)" class="companyName"><path id="id-D6z1nYkh12" d="M8.40-15.76L8.40-6.24Q8.40-3.20 9.08-1.86Q9.76-0.52 11.26-0.52Q12.76-0.52 13.92-2.78Q15.08-5.04 15.08-9.14Q15.08-13.24 13.86-15.44Q12.64-17.64 11-17.64Q9.36-17.64 8.40-15.76L8.40-15.76ZM17.80-1.42Q16.32-0.44 14.92-0.04Q13.52 0.36 12.18 0.36Q10.84 0.36 9.72-0.14Q8.60-0.64 7.94-1.22Q7.28-1.80 6.48-2.30Q5.68-2.80 4.96-2.80Q4.24-2.80 3.70-2Q3.16-1.20 3.16 0L3.16 0L2.40 0L2.40-26L0.40-26L0.40-26.80L8.40-26.80L8.40-16.96Q9.04-18.04 10.50-18.66Q11.96-19.28 13.56-19.28L13.56-19.28Q16.60-19.28 18.86-16.62Q21.12-13.96 21.12-9.20L21.12-9.20Q21.12-6.40 20.20-4.40Q19.28-2.40 17.80-1.42Z M31.92-18.40L31.92-0.80L33.92-0.80L33.92 0L23.92 0L23.92-0.80L25.92-0.80L25.92-17.60L24.32-17.60L24.32-18.40L31.92-18.40ZM32.28-23.70Q32.28-22.24 31.26-21.22Q30.24-20.20 28.78-20.20Q27.32-20.20 26.28-21.22Q25.24-22.24 25.24-23.70Q25.24-25.16 26.28-26.20Q27.32-27.24 28.78-27.24Q30.24-27.24 31.26-26.20Q32.28-25.16 32.28-23.70Z M41.52-3.72L41.52-3.72Q41.52-2.60 42.96-2.44L42.96-2.44L49.84-2.44Q53.40-2.44 54.80-0.92Q56.20 0.60 55.78 2.84Q55.36 5.08 53.04 6.96Q50.72 8.84 46.64 8.84L46.64 8.84Q39.16 8.84 37.04 6.64L37.04 6.64Q36.24 5.76 36.36 4.58Q36.48 3.40 37.24 2.66Q38.00 1.92 38.96 1.64L38.96 1.64Q37.68 0.56 37.68-1.04Q37.68-2.64 38.66-3.90Q39.64-5.16 40.92-5.92L40.92-5.92Q36.32-7.60 36.32-11.96L36.32-11.96Q36.32-15.20 39.30-16.98Q42.28-18.76 46.04-18.76L46.04-18.76Q47.84-18.76 49.64-18.20L49.64-18.20Q48.72-19.44 48.72-21.16Q48.72-22.88 49.90-24.02Q51.08-25.16 52.86-25.16Q54.64-25.16 55.54-24.22Q56.44-23.28 56.44-22.12Q56.44-20.96 55.74-20.16Q55.04-19.36 53.90-19.36Q52.76-19.36 52.08-20.12Q51.40-20.88 51.40-21.66Q51.40-22.44 51.70-23.02Q52-23.60 52-23.68L52-23.68Q51.88-24.32 51.20-24.04Q50.52-23.76 50.02-22.90Q49.52-22.04 49.52-20.92L49.52-20.92Q49.52-18.72 51.48-17.40L51.48-17.40Q54.92-15.48 54.92-12.08Q54.92-8.68 52.08-6.94Q49.24-5.20 45.36-5.20L45.36-5.20Q43.48-5.20 42.04-5.60L42.04-5.60Q41.52-4.72 41.52-3.72ZM48.92-12.06Q48.92-15.48 48.12-16.72Q47.32-17.96 45.74-17.96Q44.16-17.96 43.44-16.70Q42.72-15.44 42.72-12.08Q42.72-8.72 43.48-7.36Q44.24-6 45.78-6Q47.32-6 48.12-7.32Q48.92-8.64 48.92-12.06ZM49.60 2.76L49.60 2.76L42.88 2.76Q40.96 2.76 39.64 2.08L39.64 2.08Q39.08 4.96 41.10 6.50Q43.12 8.04 46.64 8.04Q50.16 8.04 52.48 6.28L52.48 6.28Q53.56 5.48 53.68 4.68Q53.80 3.88 52.76 3.32Q51.72 2.76 49.60 2.76Z M74.24-15.76L74.24-6.24Q74.24-3.20 74.92-1.86Q75.60-0.52 77.10-0.52Q78.60-0.52 79.76-2.78Q80.92-5.04 80.92-9.14Q80.92-13.24 79.70-15.44Q78.48-17.64 76.84-17.64Q75.20-17.64 74.24-15.76L74.24-15.76ZM83.64-1.42Q82.16-0.44 80.76-0.04Q79.36 0.36 78.02 0.36Q76.68 0.36 75.56-0.14Q74.44-0.64 73.78-1.22Q73.12-1.80 72.32-2.30Q71.52-2.80 70.80-2.80Q70.08-2.80 69.54-2Q69-1.20 69 0L69 0L68.24 0L68.24-26L66.24-26L66.24-26.80L74.24-26.80L74.24-16.96Q74.88-18.04 76.34-18.66Q77.80-19.28 79.40-19.28L79.40-19.28Q82.44-19.28 84.70-16.62Q86.96-13.96 86.96-9.20L86.96-9.20Q86.96-6.40 86.04-4.40Q85.12-2.40 83.64-1.42Z M111.56 0L103.56 0L103.56-2.12Q102.80-1.04 101.18-0.30Q99.56 0.44 97.68 0.44L97.68 0.44Q90.56 0.44 90.56-7.28L90.56-7.28L90.56-17.60L88.56-17.60L88.56-18.40L96.56-18.40L96.56-6.40Q96.56-3.56 97.40-2.36Q98.24-1.16 99.92-1.16L99.92-1.16Q102.16-1.16 103.56-3.56L103.56-3.56L103.56-17.60L101.56-17.60L101.56-18.40L109.56-18.40L109.56-0.80L111.56-0.80L111.56 0Z M123.16-0.32L123.16-0.32Q127.32-0.32 127.32-2.60L127.32-2.60Q127.32-3.88 125.88-4.70Q124.44-5.52 122.40-6.04Q120.36-6.56 118.38-7.24Q116.40-7.92 115.10-9.40Q113.80-10.88 114.04-13.28Q114.28-15.68 116.50-17.24Q118.72-18.80 121.98-18.80Q125.24-18.80 127.24-17.76Q129.24-16.72 129.48-14.96L129.48-14.96Q129.64-13.88 129.14-12.96Q128.64-12.04 127.50-12Q126.36-11.96 125.62-12.60Q124.88-13.24 124.92-14.08Q124.96-14.92 125.56-15.58Q126.16-16.24 126.16-16.64L126.16-16.64Q126.16-17.32 124.86-17.66Q123.56-18 121.86-18Q120.16-18 119.08-17.24Q118.00-16.48 118.00-15.36Q118.00-14.24 119.34-13.44Q120.68-12.64 122.60-12.14Q124.52-11.64 126.42-11.02Q128.32-10.40 129.66-9.04Q131-7.68 131-5.60L131-5.60Q131-2.84 129.04-1.18Q127.08 0.48 123.12 0.48Q119.16 0.48 116.70-0.72Q114.24-1.92 114.00-3.80L114.00-3.80Q113.84-4.88 114.36-5.80Q114.88-6.72 116.00-6.76Q117.12-6.80 117.86-6.16Q118.60-5.52 118.56-4.68Q118.52-3.84 117.92-3.18Q117.32-2.52 117.32-2.12L117.32-2.12Q117.32-1.32 119.18-0.82Q121.04-0.32 123.16-0.32Z M141.36-18.40L141.36-0.80L143.36-0.80L143.36 0L133.36 0L133.36-0.80L135.36-0.80L135.36-17.60L133.76-17.60L133.76-18.40L141.36-18.40ZM141.72-23.70Q141.72-22.24 140.70-21.22Q139.68-20.20 138.22-20.20Q136.76-20.20 135.72-21.22Q134.68-22.24 134.68-23.70Q134.68-25.16 135.72-26.20Q136.76-27.24 138.22-27.24Q139.68-27.24 140.70-26.20Q141.72-25.16 141.72-23.70Z M167.16-11.12L167.16-0.80L169.16-0.80L169.16 0L159.16 0L159.16-0.80L161.16-0.80L161.16-12Q161.16-14.84 160.32-16.04Q159.48-17.24 157.80-17.24L157.80-17.24Q155.52-17.24 154.16-14.84L154.16-14.84L154.16-0.80L156.16-0.80L156.16 0L146.16 0L146.16-0.80L148.16-0.80L148.16-17.60L146.16-17.60L146.16-18.40L154.16-18.40L154.16-16.32Q154.92-17.36 156.54-18.10Q158.16-18.84 160.04-18.84L160.04-18.84Q167.16-18.84 167.16-11.12L167.16-11.12Z M189.64-8L189.64-8L177.56-8Q177.96-0.96 183.04-0.96L183.04-0.96Q184.40-0.96 186.14-1.60Q187.88-2.24 188.68-3.40L188.68-3.40L189.24-3Q188.36-1.52 186.24-0.56Q184.12 0.40 182.02 0.40Q179.92 0.40 178.24-0.02Q176.56-0.44 174.96-1.44Q173.36-2.44 172.46-4.44Q171.56-6.44 171.56-9.28L171.56-9.28Q171.56-14.12 174.24-16.46Q176.92-18.80 180.74-18.80Q184.56-18.80 187.10-16.24Q189.64-13.68 189.64-8ZM177.52-9.24L177.52-8.80L184.04-8.80Q184.04-12.48 183.26-15.24Q182.48-18 180.76-18Q179.04-18 178.28-15.34Q177.52-12.68 177.52-9.24L177.52-9.24Z M201.36-0.32L201.36-0.32Q205.52-0.32 205.52-2.60L205.52-2.60Q205.52-3.88 204.08-4.70Q202.64-5.52 200.60-6.04Q198.56-6.56 196.58-7.24Q194.60-7.92 193.30-9.40Q192-10.88 192.24-13.28Q192.48-15.68 194.70-17.24Q196.92-18.80 200.18-18.80Q203.44-18.80 205.44-17.76Q207.44-16.72 207.68-14.96L207.68-14.96Q207.84-13.88 207.34-12.96Q206.84-12.04 205.70-12Q204.56-11.96 203.82-12.60Q203.08-13.24 203.12-14.08Q203.16-14.92 203.76-15.58Q204.36-16.24 204.36-16.64L204.36-16.64Q204.36-17.32 203.06-17.66Q201.76-18 200.06-18Q198.36-18 197.28-17.24Q196.20-16.48 196.20-15.36Q196.20-14.24 197.54-13.44Q198.88-12.64 200.80-12.14Q202.72-11.64 204.62-11.02Q206.52-10.40 207.86-9.04Q209.20-7.68 209.20-5.60L209.20-5.60Q209.20-2.84 207.24-1.18Q205.28 0.48 201.32 0.48Q197.36 0.48 194.90-0.72Q192.44-1.92 192.20-3.80L192.20-3.80Q192.04-4.88 192.56-5.80Q193.08-6.72 194.20-6.76Q195.32-6.80 196.06-6.16Q196.80-5.52 196.76-4.68Q196.72-3.84 196.12-3.18Q195.52-2.52 195.52-2.12L195.52-2.12Q195.52-1.32 197.38-0.82Q199.24-0.32 201.36-0.32Z M220.36-0.32L220.36-0.32Q224.52-0.32 224.52-2.60L224.52-2.60Q224.52-3.88 223.08-4.70Q221.64-5.52 219.60-6.04Q217.56-6.56 215.58-7.24Q213.60-7.92 212.30-9.40Q211-10.88 211.24-13.28Q211.48-15.68 213.70-17.24Q215.92-18.80 219.18-18.80Q222.44-18.80 224.44-17.76Q226.44-16.72 226.68-14.96L226.68-14.96Q226.84-13.88 226.34-12.96Q225.84-12.04 224.70-12Q223.56-11.96 222.82-12.60Q222.08-13.24 222.12-14.08Q222.16-14.92 222.76-15.58Q223.36-16.24 223.36-16.64L223.36-16.64Q223.36-17.32 222.06-17.66Q220.76-18 219.06-18Q217.36-18 216.28-17.24Q215.20-16.48 215.20-15.36Q215.20-14.24 216.54-13.44Q217.88-12.64 219.80-12.14Q221.72-11.64 223.62-11.02Q225.52-10.40 226.86-9.04Q228.20-7.68 228.20-5.60L228.20-5.60Q228.20-2.84 226.24-1.18Q224.28 0.48 220.32 0.48Q216.36 0.48 213.90-0.72Q211.44-1.92 211.20-3.80L211.20-3.80Q211.04-4.88 211.56-5.80Q212.08-6.72 213.20-6.76Q214.32-6.80 215.06-6.16Q215.80-5.52 215.76-4.68Q215.72-3.84 215.12-3.18Q214.52-2.52 214.52-2.12L214.52-2.12Q214.52-1.32 216.38-0.82Q218.24-0.32 220.36-0.32Z"/></g>
</svg>
</g></svg></svg>